<svg width="90" height="90" viewBox="0 0 90 90" fill="none" xmlns="http://www.w3.org/2000/svg">
<path d="M44.6699 44.9993C44.6699 37.6357 50.6393 31.666 58.0031 31.666C65.3667 31.666 71.3363 37.6357 71.3363 44.9993C71.3363 52.3632 65.3667 58.3326 58.0031 58.3326C50.6393 58.3326 44.6699 52.3632 44.6699 44.9993Z" fill="#1ABCFE"/>
<path d="M18 71.6663C18 64.3027 23.9695 58.333 31.3332 58.333H44.6663V71.6663C44.6663 79.0302 38.6969 84.9996 31.3332 84.9996C23.9695 84.9996 18 79.0302 18 71.6663Z" fill="#0ACF83"/>
<path d="M44.6699 5V31.6665H58.0031C65.3669 31.6665 71.3363 25.6971 71.3363 18.3333C71.3363 10.9695 65.3669 5 58.0031 5H44.6699Z" fill="#FF7262"/>
<path d="M18 18.3333C18 25.6971 23.9695 31.6665 31.3332 31.6665H44.6663V5H31.3332C23.9695 5 18 10.9695 18 18.3333Z" fill="#F24E1E"/>
<path d="M18 44.9993C18 52.3632 23.9695 58.3326 31.3332 58.3326H44.6663V31.666H31.3332C23.9695 31.666 18 37.6357 18 44.9993Z" fill="#A259FF"/>
</svg>
