<svg width="90" height="90" viewBox="0 0 90 90" fill="none" xmlns="http://www.w3.org/2000/svg">
<path d="M45.9997 37.7273V53.2183H67.527C66.5817 58.2002 63.745 62.4186 59.4905 65.2549L72.4724 75.3278C80.036 68.3461 84.3997 58.0914 84.3997 45.9096C84.3997 43.0733 84.1453 40.3457 83.6724 37.7278L45.9997 37.7273Z" fill="#4285F4"/>
<path d="M23.5822 52.6137L20.6543 54.855L10.2904 62.9276C16.8722 75.9821 30.3622 85.0005 45.9986 85.0005C56.7984 85.0005 65.8529 81.4368 72.4713 75.3278L59.4894 65.255C55.9258 67.655 51.3802 69.1097 45.9986 69.1097C35.5986 69.1097 26.7624 62.0915 23.5985 52.6368L23.5822 52.6137Z" fill="#34A853"/>
<path d="M10.2906 27.0729C7.56349 32.4545 6 38.5274 6 45C6 51.4727 7.56323 57.546 10.2904 62.9276C10.2904 62.9637 23.6001 52.5998 23.6001 52.5998C22.8001 50.1998 22.3272 47.6545 22.3272 44.9996C22.3272 42.3447 22.8001 39.7994 23.6001 37.3994L10.2906 27.0729Z" fill="#FBBC05"/>
<path d="M45.9994 20.9274C51.8905 20.9274 57.1268 22.9637 61.3086 26.891L72.7631 15.4366C65.8176 8.96391 56.7997 5 45.9994 5C30.3631 5 16.8725 13.9819 10.2906 27.0729L23.5994 37.4002C26.7629 27.9455 35.5994 20.9274 45.9994 20.9274Z" fill="#EA4335"/>
</svg>
