<svg width="90" height="90" viewBox="0 0 90 90" fill="none" xmlns="http://www.w3.org/2000/svg">
<path d="M44.978 5C22.8977 5 4.99805 22.8996 4.99805 44.98C4.99805 67.0603 22.8977 84.9601 44.978 84.9601C67.0584 84.9601 84.958 67.0603 84.958 44.98C84.958 22.8996 67.0584 5 44.978 5ZM44.978 7.3988C50.0526 7.3988 54.9739 8.39214 59.6055 10.3511C61.8319 11.2928 63.9794 12.4585 65.9884 13.8156C67.9789 15.1604 69.8507 16.7048 71.5519 18.4061C73.2532 20.1073 74.7976 21.9792 76.1424 23.9696C77.4996 25.9786 78.6652 28.1261 79.6069 30.3524C81.566 34.9841 82.5592 39.9055 82.5592 44.98C82.5592 50.0545 81.566 54.9759 79.6069 59.6075C78.6652 61.8338 77.4996 63.9813 76.1424 65.9903C74.7976 67.9809 73.2532 69.8527 71.5519 71.5539C69.8507 73.2551 67.9789 74.7996 65.9884 76.1444C63.9794 77.5016 61.8319 78.6672 59.6055 79.6088C54.9739 81.5679 50.0526 82.5613 44.978 82.5613C39.9036 82.5613 34.9821 81.5679 30.3505 79.6088C28.1242 78.6672 25.9766 77.5016 23.9676 76.1444C21.9772 74.7996 20.1053 73.2551 18.4041 71.5539C16.7029 69.8527 15.1584 67.9809 13.8136 65.9903C12.4565 63.9813 11.2908 61.8338 10.3492 59.6075C8.39019 54.9759 7.39685 50.0545 7.39685 44.98C7.39685 39.9055 8.39019 34.9841 10.3492 30.3524C11.2908 28.1261 12.4565 25.9786 13.8136 23.9696C15.1584 21.9792 16.7029 20.1073 18.4041 18.4061C20.1053 16.7048 21.9772 15.1604 23.9676 13.8156C25.9766 12.4585 28.1242 11.2928 30.3505 10.3511C34.9821 8.39214 39.9036 7.3988 44.978 7.3988Z" fill="#32373C"/>
<path d="M74.2128 28.9961C74.3559 30.057 74.4367 31.1954 74.4367 32.4217C74.4367 35.8012 73.8035 39.6018 71.9025 44.3545L61.7269 73.7754C71.6319 68.0008 78.293 57.2699 78.293 44.9789C78.293 39.1865 76.8127 33.741 74.2128 28.9961ZM45.5616 47.8931L35.5639 76.9393C38.5497 77.8178 41.7063 78.2968 44.9763 78.2968C48.856 78.2968 52.578 77.6272 56.0407 76.4079C55.9515 76.2654 55.8694 76.114 55.8016 75.9487L45.5616 47.8931ZM67.4678 43.2987C67.4678 39.1799 65.9884 36.3292 64.7213 34.1107C63.0323 31.365 61.4485 29.0421 61.4485 26.2966C61.4485 23.2345 63.7707 20.3838 67.0434 20.3838C67.1912 20.3838 67.3312 20.4015 67.4748 20.4106C61.5472 14.9795 53.6499 11.6635 44.9763 11.6635C33.3363 11.6635 23.0967 17.6359 17.1393 26.6797C17.9216 26.7045 18.6586 26.7201 19.2835 26.7201C22.7675 26.7201 28.1632 26.2966 28.1632 26.2966C29.9583 26.1914 30.1704 28.8299 28.3763 29.0421C28.3763 29.0421 26.5708 29.2536 24.5635 29.3586L36.6954 65.4467L43.9874 43.5804L38.797 29.3586C37.002 29.2536 35.3027 29.0421 35.3027 29.0421C33.5067 28.9361 33.7171 26.1914 35.514 26.2966C35.514 26.2966 41.0148 26.7201 44.2883 26.7201C47.7724 26.7201 53.1689 26.2966 53.1689 26.2966C54.9649 26.1914 55.1763 28.8299 53.3812 29.0421C53.3812 29.0421 51.574 29.2536 49.5683 29.3586L61.6086 65.1718L65.0456 54.2811C66.5726 49.5215 67.4678 46.1494 67.4678 43.2987ZM11.6596 44.9789C11.6596 58.1657 19.3226 69.5628 30.4374 74.9626L14.5445 31.4203C12.6959 35.5634 11.6596 40.1487 11.6596 44.9789Z" fill="#32373C"/>
</svg>
